<svg id="Cutlery_Image" data-name="Cutlery Image" xmlns="http://www.w3.org/2000/svg" viewBox="0 0 40 40"><defs><style>.cls-1,.cls-3{fill:#444;}.cls-2{fill:none;}.cls-3{opacity:0;}</style></defs><title>nav-toggle</title><rect class="cls-1" x="4" y="7" width="23" height="5"/><rect class="cls-1" x="13" y="17" width="23" height="5"/><rect class="cls-1" x="4" y="27" width="23" height="5"/><ellipse class="cls-2" cx="32.25" cy="29.5" rx="3.75" ry="2.5"/><ellipse class="cls-1" cx="32.25" cy="29.5" rx="3.75" ry="2.5"/><polygon class="cls-1" points="4 17 4 18 8.75 18 8.75 19 4 19 4 20 8.75 20 8.75 21 4 21 4 22 11.5 22 11.5 17 4 17"/><path class="cls-1" d="M28.5,7H36s0,3-2.13,4.31C32.36,12.25,28.5,12,28.5,12V7Z"/><rect class="cls-3" width="40" height="40"/></svg>