<?xml version="1.0" standalone="no"?>
<!DOCTYPE svg PUBLIC "-//W3C//DTD SVG 20010904//EN"
 "http://www.w3.org/TR/2001/REC-SVG-20010904/DTD/svg10.dtd">
<svg version="1.0" xmlns="http://www.w3.org/2000/svg"
 width="260.000000pt" height="260.000000pt" viewBox="0 0 260.000000 260.000000"
 preserveAspectRatio="xMidYMid meet">
<metadata>
Created by potrace 1.11, written by Peter Selinger 2001-2013
</metadata>
<g transform="translate(0.000000,260.000000) scale(0.100000,-0.100000)"
fill="#000000" stroke="none">
<path d="M254 2112 c-6 -4 -10 -63 -9 -162 l0 -155 735 -2 c404 -1 744 0 755
2 19 4 20 12 20 164 l0 161 -745 0 c-410 0 -750 -4 -756 -8z m9 -27 c4 -8 3
-16 -1 -19 -4 -3 -9 4 -9 15 -2 23 3 25 10 4z m0 -110 c4 -8 3 -16 -1 -19 -4
-3 -9 4 -9 15 -2 23 3 25 10 4z m2 -94 c3 -5 2 -12 -3 -15 -5 -3 -9 1 -9 9 0
17 3 19 12 6z"/>
<path d="M1849 2083 c-1 -51 -1 -165 0 -236 l1 -58 126 3 c69 2 128 6 130 10
2 4 13 5 24 3 11 -2 20 0 20 6 0 5 7 9 15 9 17 0 21 3 78 52 20 18 37 39 37
45 0 7 4 13 8 13 11 0 40 89 45 135 2 11 6 25 10 31 13 21 -21 24 -259 24
l-234 0 -1 -37z"/>
<path d="M264 1471 c3 -5 -1 -11 -8 -14 -8 -3 -14 -15 -13 -26 0 -11 5 -17 9
-15 4 3 8 1 8 -4 0 -5 60 -9 138 -9 75 0 144 -4 152 -9 8 -5 16 -19 16 -31 1
-22 0 -23 -145 -23 -80 -1 -153 -2 -161 -2 -25 -2 -19 -60 5 -65 37 -7 101 -6
113 1 7 4 12 4 12 -1 0 -4 14 -8 30 -8 17 0 30 3 30 6 0 4 18 3 40 -1 24 -4
43 -3 47 3 3 5 10 1 16 -9 16 -27 16 -38 3 -49 -12 -11 -186 -14 -186 -3 0 4
-12 4 -27 0 -36 -9 -65 -8 -81 2 -7 4 -12 4 -11 -1 1 -4 0 -10 -1 -13 -1 -3
-3 -17 -4 -32 -2 -21 1 -26 16 -23 10 2 18 -1 18 -6 0 -6 5 -7 11 -3 17 10 60
11 86 2 12 -4 25 -3 28 2 4 6 13 7 24 1 10 -6 23 -6 31 -1 9 5 19 5 27 -2 9
-7 13 -7 13 0 0 11 25 10 36 -1 4 -3 14 -2 23 3 10 5 23 5 31 0 8 -5 22 -4 32
1 12 7 18 6 18 -1 0 -7 6 -8 18 -1 13 7 23 6 30 -1 8 -8 12 -8 12 -1 0 5 11 8
24 6 l24 -5 -1 166 0 165 -29 -3 c-15 -2 -28 1 -28 6 0 5 -5 6 -12 2 -18 -12
-58 -11 -58 1 0 5 -5 3 -11 -5 -8 -11 -12 -12 -16 -2 -2 6 -10 9 -16 5 -14 -8
-75 -8 -84 0 -3 4 -12 2 -20 -4 -10 -9 -13 -8 -13 2 0 11 -3 11 -11 -1 -8 -11
-12 -12 -16 -2 -2 6 -10 9 -16 5 -17 -10 -47 -11 -47 -1 0 5 -6 6 -12 1 -17
-10 -47 -10 -76 -1 -13 5 -21 4 -18 -1z"/>
<path d="M896 1472 c-3 -5 -17 -7 -31 -4 -23 4 -25 1 -25 -24 1 -58 2 -139 1
-154 -2 -42 2 -128 7 -152 1 -4 13 -4 25 1 13 5 30 5 37 1 8 -5 22 -4 32 1 12
7 18 6 18 -1 0 -7 6 -8 18 -1 13 7 23 6 30 -1 9 -9 12 -9 12 -1 0 12 18 12 35
1 6 -4 17 -3 25 2 7 4 24 4 37 -1 13 -5 23 -5 23 0 0 10 26 9 36 -2 4 -3 14
-2 23 3 10 5 23 5 31 0 8 -5 22 -4 34 2 14 8 21 8 24 0 2 -7 13 -7 32 -2 20 6
30 5 34 -3 3 -8 5 -7 5 2 1 10 4 11 15 2 9 -8 16 -8 20 -2 4 6 15 7 30 1 12
-4 29 -4 36 0 9 5 20 4 27 -2 9 -7 13 -7 13 0 0 11 18 11 35 0 6 -4 17 -3 25
2 7 4 24 4 37 -1 13 -5 23 -5 23 0 0 10 26 9 36 -2 4 -3 14 -2 23 3 10 5 23 5
31 0 8 -5 22 -4 34 2 14 8 21 8 24 0 2 -7 13 -7 32 -2 20 6 30 5 34 -3 3 -8 5
-7 5 2 1 10 4 11 15 2 8 -7 17 -8 20 -3 3 5 26 6 50 2 25 -4 51 -3 58 1 7 4
18 3 25 -3 9 -7 13 -7 13 0 0 11 18 11 37 -1 6 -4 15 -3 18 3 5 7 11 8 19 1 7
-6 18 -6 26 -1 7 4 24 4 37 -1 13 -5 23 -5 23 0 0 10 19 9 37 -2 6 -4 15 -3
18 3 5 8 11 8 19 1 7 -6 16 -8 20 -4 4 4 19 7 34 8 l27 0 1 163 1 164 -54 -4
c-29 -3 -53 0 -53 5 0 5 -7 4 -15 -3 -12 -10 -15 -10 -15 1 0 11 -3 11 -11 -1
-8 -12 -12 -12 -16 -2 -4 10 -8 10 -19 1 -11 -9 -14 -8 -14 2 0 11 -3 11 -11
-1 -8 -12 -12 -12 -16 -2 -4 10 -8 10 -19 1 -11 -9 -14 -8 -14 2 0 11 -3 11
-11 -1 -8 -12 -12 -12 -16 -2 -4 10 -8 10 -19 1 -11 -9 -14 -8 -14 2 0 11 -3
11 -11 -1 -8 -11 -12 -12 -16 -2 -2 6 -9 10 -14 6 -15 -9 -229 -10 -229 0 0 5
-7 3 -15 -4 -12 -10 -15 -10 -15 1 0 11 -3 11 -11 -1 -8 -12 -12 -12 -16 -2
-4 10 -8 10 -19 1 -11 -9 -14 -8 -14 2 0 11 -3 11 -11 -1 -8 -12 -12 -12 -16
-2 -4 10 -8 10 -19 1 -11 -9 -14 -8 -14 2 0 11 -3 11 -11 -1 -8 -12 -12 -12
-16 -2 -4 10 -8 10 -19 1 -11 -9 -14 -8 -14 2 0 11 -3 11 -11 -1 -8 -11 -12
-12 -16 -2 -2 6 -9 10 -14 6 -17 -10 -239 -10 -239 1 0 6 -5 3 -11 -5 -8 -11
-12 -12 -16 -2 -2 6 -10 9 -16 5 -14 -8 -75 -8 -84 0 -3 4 -12 2 -20 -4 -10
-9 -13 -8 -13 2 0 11 -3 11 -11 -1 -8 -11 -12 -12 -16 -2 -2 6 -10 9 -16 5
-17 -10 -47 -11 -47 -1 0 5 -5 6 -12 2 -18 -12 -58 -11 -58 1 0 5 -5 3 -10 -5
-8 -12 -11 -13 -19 -1 -5 8 -11 9 -15 3z"/>
<path d="M290 820 c0 -5 -3 -9 -7 -9 -26 4 -43 -2 -36 -13 10 -17 13 -39 5
-34 -4 2 -7 -58 -7 -134 0 -76 2 -137 4 -134 2 2 11 -2 19 -9 13 -10 14 -9 7
3 -6 12 -5 13 6 3 15 -15 33 -18 25 -5 -6 10 24 9 41 -1 6 -4 14 -3 17 1 6 10
46 10 62 -1 6 -3 14 -3 18 0 4 4 17 8 29 10 17 2 19 1 7 -7 -13 -8 -13 -10 2
-10 9 0 20 5 23 10 5 8 11 8 20 0 9 -7 15 -8 19 -1 4 6 15 7 30 1 12 -4 29 -4
36 0 8 5 22 4 31 -1 11 -6 20 -5 24 1 3 5 15 6 29 0 12 -4 29 -4 36 0 8 5 22
4 31 -1 11 -5 20 -5 23 0 7 10 25 9 43 -2 6 -4 14 -3 17 1 6 10 46 10 62 -1 6
-3 14 -3 18 0 11 12 56 11 49 0 -4 -7 1 -8 13 -3 31 13 48 14 61 4 7 -5 14 -5
17 1 5 7 15 7 32 1 30 -12 37 -12 31 -2 -3 4 5 7 18 7 13 0 21 -3 18 -7 -2 -5
0 -8 6 -8 5 0 13 5 16 10 5 8 11 8 20 0 9 -7 15 -7 19 -1 4 6 17 6 36 -1 22
-7 34 -7 43 1 10 7 17 7 24 0 8 -8 13 -8 17 0 4 6 15 7 30 1 12 -4 29 -4 36 0
8 5 22 4 31 -1 11 -6 20 -5 24 1 3 5 15 6 29 0 12 -4 29 -4 36 0 8 5 22 4 31
-1 11 -6 20 -5 24 1 3 5 12 10 18 10 7 0 6 -4 -3 -10 -13 -8 -13 -10 2 -10 9
0 20 5 23 10 5 8 11 8 20 0 9 -7 15 -8 19 -1 4 6 15 7 29 2 15 -6 29 -4 41 5
17 12 19 28 19 152 -1 169 -4 183 -41 173 -15 -5 -37 -4 -50 0 -13 5 -21 5
-18 1 3 -5 -11 -8 -29 -8 -19 1 -35 4 -35 8 0 4 -15 2 -32 -3 -41 -11 -41 -11
-33 1 4 7 -3 7 -19 0 -19 -7 -26 -6 -26 3 0 8 -4 7 -10 -3 -8 -12 -10 -12 -10
-1 0 11 -3 11 -15 1 -9 -8 -15 -8 -15 -2 0 7 -10 8 -28 3 -15 -5 -37 -4 -50 0
-13 5 -21 5 -18 0 3 -4 -8 -8 -24 -7 -17 1 -30 4 -30 8 0 4 -11 3 -25 -2 -17
-7 -25 -6 -25 1 0 8 -5 7 -15 -1 -10 -8 -15 -9 -15 -1 0 7 -8 8 -25 1 -15 -6
-25 -6 -25 0 0 5 -12 5 -28 0 -16 -4 -36 -4 -45 2 -10 5 -17 5 -17 0 0 -5 -7
-9 -15 -9 -8 0 -15 4 -15 8 0 4 -13 4 -28 -1 -16 -4 -36 -4 -45 2 -10 5 -17 5
-17 0 0 -5 -7 -9 -15 -9 -8 0 -15 4 -15 8 0 4 -13 4 -30 -1 -19 -5 -30 -5 -30
1 0 6 -6 7 -12 2 -19 -11 -38 -13 -38 -2 0 5 -11 4 -25 -1 -17 -7 -25 -6 -25
1 0 8 -5 7 -15 -1 -10 -8 -15 -9 -15 -1 0 7 -8 8 -25 1 -17 -7 -25 -6 -25 1 0
8 -5 7 -15 -1 -10 -8 -15 -9 -15 -1 0 7 -8 8 -25 1 -17 -7 -25 -6 -25 1 0 8
-5 7 -15 -1 -10 -8 -15 -9 -15 -1 0 7 -8 8 -25 1 -15 -6 -25 -6 -25 0 0 5 -12
5 -28 0 -16 -4 -36 -4 -45 2 -10 5 -17 5 -17 0 0 -5 -7 -9 -15 -9 -8 0 -15 4
-15 8 0 4 -13 4 -28 -1 -16 -4 -36 -4 -45 2 -11 6 -17 5 -17 -2z m-25 -179 c3
-5 2 -12 -3 -15 -5 -3 -9 1 -9 9 0 17 3 19 12 6z m-2 -106 c4 -8 3 -16 -1 -19
-4 -3 -9 4 -9 15 -2 23 3 25 10 4z"/>
<path d="M2050 822 c0 -5 -13 -9 -29 -10 -39 -1 -104 -35 -141 -73 -77 -81
-14 -203 122 -235 18 -4 39 -7 47 -5 7 1 11 -1 8 -6 -3 -5 14 -8 38 -8 24 0
41 4 38 9 -3 5 6 7 21 4 14 -3 26 -1 26 4 0 5 5 6 10 3 6 -3 10 -1 10 5 0 6 4
8 10 5 18 -11 117 69 122 99 6 46 3 76 -13 106 -11 19 -19 31 -19 25 0 -5 -6
-2 -12 7 -20 26 -86 58 -119 58 -18 0 -28 4 -24 10 4 7 -3 8 -22 4 -15 -4 -30
-8 -32 -10 -2 -2 -12 1 -22 7 -11 5 -19 6 -19 1z"/>
</g>
</svg>
